<?xml version="1.0" encoding="utf-8"?>
<!-- Generator: Adobe Illustrator 24.3.0, SVG Export Plug-In . SVG Version: 6.00 Build 0)  -->
<svg version="1.1" id="Layer_1" xmlns="http://www.w3.org/2000/svg" xmlns:xlink="http://www.w3.org/1999/xlink" x="0px" y="0px"
	 viewBox="0 0 138 90" style="enable-background:new 0 0 138 90;" xml:space="preserve">
<style type="text/css">
	.st0{fill:#84C21B;}
</style>
<g>
	<g>
		<path class="st0" d="M74.3,27.4c-0.1-0.1-0.2-0.2-0.3-0.2c-0.1-0.1-0.2-0.2-0.3-0.2c-0.5-0.2-0.9-0.5-1.4-0.7
			c-1-0.4-2-0.6-3.1-0.6c-1.1,0-2.1,0.2-3.1,0.6c-1,0.4-1.9,0.9-2.6,1.7c0.9-0.4,1.9-0.7,2.8-1c1-0.2,1.9-0.4,2.9-0.3
			c1,0,1.9,0.1,2.9,0.4c0.5,0.1,0.9,0.3,1.4,0.4c0.2,0.1,0.5,0.2,0.7,0.3c0.2,0.1,0.5,0.2,0.7,0.3C74.7,27.7,74.5,27.6,74.3,27.4z"
			/>
		<path class="st0" d="M69.2,46.6c-1,0-1.9-0.1-2.9-0.4c-0.5-0.1-0.9-0.3-1.4-0.4c-0.2-0.1-0.5-0.2-0.7-0.3
			c-0.2-0.1-0.5-0.2-0.7-0.3c0.2,0.2,0.4,0.3,0.6,0.5c0.1,0.1,0.2,0.2,0.3,0.2c0.1,0.1,0.2,0.2,0.3,0.2c0.5,0.2,0.9,0.5,1.4,0.7
			c1,0.4,2,0.6,3.1,0.6c1.1,0,2.1-0.2,3.1-0.6c1-0.4,1.9-0.9,2.6-1.7c-0.9,0.4-1.9,0.7-2.8,1C71.2,46.5,70.2,46.6,69.2,46.6z"/>
		<path class="st0" d="M78.8,28.9c-1.2-4.4-3.8-11.2-9-18.1l2.8-5.6l-4.2-2.8l-4.1,3l3,5.2c0,0,0.1,4.2-2.1,6.7c0,0,6.5,1.6,10.2,7
			c0.9,1.3,1.8,3.8,2.1,5.4C78,34,78.3,44,72.5,54.8l-5.6-0.2c0,0-6.7-10.9-6.7-17.6s1.8-15.4,5.3-22.5c0,0-15.9,15.6-0.8,41.6h7.9
			c0,0,5.3-7,6.8-16.8C80,35.9,79.7,32.3,78.8,28.9z M65.7,5.8l3-2L71.3,6l-3,2.2L65.7,5.8z"/>
	</g>
	<g>
		<path class="st0" d="M7.6,77.5H6c-0.8,0-1.5-0.2-1.9-0.7c-0.5-0.6-0.5-1.2-0.5-1.9V64h1.5v10.9c0,0.9,0,1.1,0.9,1.1h1.6V77.5z"/>
		<path class="st0" d="M12.2,73.3v-6.9c0-2,1.3-2.7,2.4-2.7c0.4,0,1.3,0.1,1.8,0.8c0.6,0.7,0.5,1.3,0.5,1.9v11.1h-1.5v-2.8h-1.8v2.8
			h-1.5v-2.8H11l-0.9-1.4H12.2z M15.5,73.3v-6.9c0-0.5,0-1.2-0.9-1.2s-0.9,0.8-0.9,1.2v6.9H15.5z"/>
		<path class="st0" d="M22.4,73.3v-6.9c0-2,1.3-2.7,2.4-2.7c0.4,0,1.3,0.1,1.8,0.8c0.6,0.7,0.5,1.3,0.5,1.9v11.1h-1.5v-2.8h-1.8v2.8
			h-1.5v-2.8h-1.3l-0.9-1.4H22.4z M25.6,73.3v-6.9c0-0.5,0-1.2-0.9-1.2c-0.9,0-0.9,0.8-0.9,1.2v6.9H25.6z"/>
		<path class="st0" d="M31.8,66c0-1.6,1.2-2.4,2.4-2.4c1.7,0,2.4,1.3,2.4,2.4v9.4c0,2-1.7,2.4-2.4,2.4c-1.2,0-2.4-0.7-2.4-2.4V66z
			 M33.2,75.1c0,0.5,0,1.2,1,1.2c0.9,0,0.9-0.8,0.9-1.2v-8.7c0-0.4,0-1.2-0.9-1.2c-1,0-1,0.8-1,1.2V75.1z"/>
		<path class="st0" d="M41,77.5c0.7-0.9,1.3-2.1,1.3-3.2c0-1-0.2-1.5-0.8-2.8c-0.5-1.1-0.8-2-0.8-3.1c0-1.6,0.5-3.1,1.4-4.4h2
			c-1.1,1.1-1.9,2.6-1.9,4.4c0,0.7,0.1,1.3,0.7,2.6c0.7,1.4,0.9,2.1,0.9,3.1c0,0.8-0.2,2.1-0.9,3.3H41z"/>
		<path class="st0" d="M55,73.3V64h4.2v1.5h-2.7v7.8h2.7v1.4h-2.7v2.8H55v-2.8h-1.3l-0.9-1.4H55z"/>
		<path class="st0" d="M64.1,73.3v-9.9c3.5,1,4.8,3.8,4.8,6c0,2.2-1.1,3.4-1.5,3.8c1.5,0.2,1.5,1.1,1.5,2v2.1h-1.5v-2.1
			c0-0.4,0-0.7-0.6-0.7h-1.3v2.8h-1.5v-2.8h-1.3l-0.9-1.4H64.1z M65.5,73.3c1.5-1,1.9-2.5,1.9-3.7c0-0.7-0.2-2.6-1.9-3.8V73.3z"/>
		<path class="st0" d="M73.8,73.3v-6.9c0-2,1.3-2.7,2.4-2.7c0.4,0,1.3,0.1,1.8,0.8c0.6,0.7,0.5,1.3,0.5,1.9v11.1h-1.5v-2.8h-1.8v2.8
			h-1.5v-2.8h-1.3l-0.9-1.4H73.8z M77.1,73.3v-6.9c0-0.5,0-1.2-0.9-1.2s-0.9,0.8-0.9,1.2v6.9H77.1z"/>
		<path class="st0" d="M87.9,70.8V78c-3.4-1.2-5.2-4-5.2-7.2c0-3.6,2.3-6,5.2-7.2v1.5c-0.8,0.4-3.7,1.9-3.7,5.6c0,2,0.7,3.5,2.2,4.8
			v-4.6H87.9z"/>
		<path class="st0" d="M93.1,73.3v-9.9c3.5,1,4.8,3.8,4.8,6c0,2.2-1.1,3.4-1.5,3.8c1.5,0.2,1.5,1.1,1.5,2v2.1h-1.5v-2.1
			c0-0.4,0-0.7-0.6-0.7h-1.3v2.8h-1.5v-2.8h-1.3L91,73.3H93.1z M94.6,73.3c1.5-1,1.9-2.5,1.9-3.7c0-0.7-0.2-2.6-1.9-3.8V73.3z"/>
		<path class="st0" d="M102.9,73.3v-6.9c0-2,1.3-2.7,2.4-2.7c0.4,0,1.3,0.1,1.8,0.8c0.6,0.7,0.5,1.3,0.5,1.9v11.1h-1.5v-2.8h-1.8
			v2.8h-1.5v-2.8h-1.3l-0.9-1.4H102.9z M106.1,73.3v-6.9c0-0.5,0-1.2-0.9-1.2c-0.9,0-0.9,0.8-0.9,1.2v6.9H106.1z"/>
		<path class="st0" d="M112.4,77.5V63.3l3.2,5.6V64h1.5v13.5h-1.5v-5.9l-1.7-2.9v8.8H112.4z"/>
		<path class="st0" d="M124,77.5c-1.7-1.9-2.7-4.2-2.7-6.8c0-2.5,1-4.8,2.7-6.7h2.1c-0.9,0.8-3.3,2.9-3.3,6.7c0,3.9,2.3,5.9,3.3,6.8
			H124z"/>
		<path class="st0" d="M130.1,73.3V64h4.2v1.5h-2.7v7.8h2.7v1.4h-2.7v0.6c0,0.5,0,0.8,0.6,0.8h2.2v1.5h-2.2c-2,0-2-1.6-2-2.2v-0.6
			h-1.3l-0.9-1.4H130.1z"/>
	</g>
	<g>
		<path class="st0" d="M31.6,87.6v-1.5l0.1,0.3l-1.7-2.9h0.5l1.5,2.5h-0.2l1.5-2.5h0.4l-1.7,2.9l0.1-0.3v1.5H31.6z"/>
		<path class="st0" d="M36.4,87.7c-0.3,0-0.6-0.1-0.9-0.2c-0.3-0.1-0.5-0.3-0.7-0.4c-0.2-0.2-0.3-0.4-0.5-0.7
			c-0.1-0.3-0.2-0.5-0.2-0.8s0.1-0.6,0.2-0.8c0.1-0.3,0.3-0.5,0.5-0.7c0.2-0.2,0.4-0.3,0.7-0.4c0.3-0.1,0.6-0.2,0.9-0.2
			c0.3,0,0.6,0.1,0.9,0.2c0.3,0.1,0.5,0.2,0.7,0.4c0.2,0.2,0.3,0.4,0.5,0.7c0.1,0.3,0.2,0.5,0.2,0.8s-0.1,0.6-0.2,0.8
			c-0.1,0.3-0.3,0.5-0.5,0.7c-0.2,0.2-0.4,0.3-0.7,0.4C37,87.6,36.7,87.7,36.4,87.7z M36.4,87.3c0.2,0,0.5,0,0.7-0.1
			c0.2-0.1,0.4-0.2,0.5-0.4c0.2-0.2,0.3-0.3,0.4-0.5c0.1-0.2,0.1-0.4,0.1-0.7s0-0.5-0.1-0.7c-0.1-0.2-0.2-0.4-0.4-0.5
			c-0.2-0.2-0.3-0.3-0.5-0.4c-0.2-0.1-0.4-0.1-0.7-0.1c-0.2,0-0.5,0-0.7,0.1c-0.2,0.1-0.4,0.2-0.5,0.4s-0.3,0.3-0.4,0.5
			s-0.1,0.4-0.1,0.7c0,0.2,0,0.5,0.1,0.7c0.1,0.2,0.2,0.4,0.4,0.5s0.3,0.3,0.5,0.4S36.2,87.3,36.4,87.3z"/>
		<path class="st0" d="M41.7,87.7c-0.5,0-0.9-0.2-1.2-0.5c-0.3-0.3-0.5-0.7-0.5-1.3v-2.4h0.4v2.3c0,0.5,0.1,0.8,0.3,1.1
			s0.5,0.3,0.9,0.3c0.4,0,0.7-0.1,0.9-0.3s0.3-0.6,0.3-1.1v-2.3h0.4v2.4c0,0.6-0.1,1-0.4,1.3C42.6,87.5,42.2,87.7,41.7,87.7z"/>
		<path class="st0" d="M45.1,87.6v-4.1h1.5c0.3,0,0.6,0.1,0.9,0.2c0.3,0.1,0.4,0.3,0.6,0.5c0.1,0.2,0.2,0.5,0.2,0.8
			c0,0.3-0.1,0.5-0.2,0.7c-0.1,0.2-0.3,0.4-0.6,0.5c-0.3,0.1-0.6,0.2-0.9,0.2h-1.3l0.2-0.2v1.5H45.1z M45.6,86.2l-0.2-0.2h1.3
			c0.4,0,0.7-0.1,0.9-0.3c0.2-0.2,0.3-0.4,0.3-0.8c0-0.3-0.1-0.6-0.3-0.8c-0.2-0.2-0.5-0.3-0.9-0.3h-1.3l0.2-0.2V86.2z M47.9,87.6
			l-1.1-1.5h0.5l1.1,1.5H47.9z"/>
		<path class="st0" d="M51.9,87.6v-4.1h0.4l2.8,3.6h-0.2v-3.6h0.4v4.1H55L52.1,84h0.2v3.6H51.9z"/>
		<path class="st0" d="M57.6,87.2H60v0.4h-2.9v-4.1h2.8v0.4h-2.4V87.2z M57.5,85.3h2.2v0.4h-2.2V85.3z"/>
		<path class="st0" d="M62.4,87.6L61,83.5h0.4l1.3,3.9h-0.2l1.3-3.9h0.4l1.3,3.9h-0.2l1.3-3.9h0.4l-1.4,4.1h-0.5L64,83.9h0.1
			l-1.3,3.7H62.4z"/>
		<path class="st0" d="M71.6,87.7c-0.3,0-0.6-0.1-0.9-0.2s-0.5-0.2-0.6-0.4l0.2-0.3c0.1,0.1,0.3,0.3,0.6,0.4
			c0.2,0.1,0.5,0.1,0.8,0.1c0.3,0,0.5,0,0.6-0.1c0.2-0.1,0.3-0.2,0.4-0.3c0.1-0.1,0.1-0.2,0.1-0.4c0-0.2,0-0.3-0.1-0.4
			c-0.1-0.1-0.2-0.2-0.4-0.2c-0.1-0.1-0.3-0.1-0.5-0.2c-0.2,0-0.4-0.1-0.5-0.1c-0.2,0-0.3-0.1-0.5-0.2c-0.2-0.1-0.3-0.2-0.4-0.3
			c-0.1-0.1-0.1-0.3-0.1-0.5c0-0.2,0.1-0.4,0.2-0.6c0.1-0.2,0.3-0.3,0.5-0.4s0.5-0.2,0.9-0.2c0.2,0,0.5,0,0.7,0.1
			c0.2,0.1,0.4,0.2,0.6,0.3l-0.1,0.3c-0.2-0.1-0.4-0.2-0.6-0.3c-0.2-0.1-0.4-0.1-0.6-0.1c-0.2,0-0.5,0-0.6,0.1
			c-0.2,0.1-0.3,0.2-0.4,0.3c-0.1,0.1-0.1,0.2-0.1,0.4c0,0.2,0,0.3,0.1,0.4c0.1,0.1,0.2,0.2,0.4,0.2c0.2,0.1,0.3,0.1,0.5,0.1
			c0.2,0,0.4,0.1,0.5,0.1c0.2,0.1,0.3,0.1,0.5,0.2c0.2,0.1,0.3,0.2,0.4,0.3c0.1,0.1,0.1,0.3,0.1,0.5c0,0.2-0.1,0.4-0.2,0.6
			c-0.1,0.2-0.3,0.3-0.5,0.4C72.3,87.6,72,87.7,71.6,87.7z"/>
		<path class="st0" d="M74.6,87.6v-4.1H75v4.1H74.6z"/>
		<path class="st0" d="M78.6,87.7c-0.3,0-0.6-0.1-0.9-0.2c-0.3-0.1-0.5-0.2-0.7-0.4c-0.2-0.2-0.3-0.4-0.5-0.7
			c-0.1-0.3-0.2-0.5-0.2-0.8s0.1-0.6,0.2-0.8c0.1-0.3,0.3-0.5,0.5-0.7c0.2-0.2,0.4-0.3,0.7-0.4c0.3-0.1,0.6-0.2,0.9-0.2
			c0.3,0,0.6,0,0.9,0.1c0.3,0.1,0.5,0.2,0.7,0.4l-0.3,0.3c-0.2-0.2-0.4-0.3-0.6-0.4c-0.2-0.1-0.4-0.1-0.7-0.1c-0.3,0-0.5,0-0.7,0.1
			c-0.2,0.1-0.4,0.2-0.6,0.4s-0.3,0.3-0.4,0.5c-0.1,0.2-0.1,0.4-0.1,0.7c0,0.2,0,0.5,0.1,0.7c0.1,0.2,0.2,0.4,0.4,0.5
			s0.3,0.3,0.6,0.4c0.2,0.1,0.4,0.1,0.7,0.1c0.2,0,0.5,0,0.7-0.1c0.2-0.1,0.4-0.2,0.6-0.4l0.2,0.3c-0.2,0.2-0.4,0.3-0.7,0.4
			C79.2,87.6,78.9,87.7,78.6,87.7z M79.7,87.1v-1.5h0.4v1.6L79.7,87.1z"/>
		<path class="st0" d="M81.8,87.6v-4.1h0.4l2.8,3.6h-0.2v-3.6h0.4v4.1h-0.4L82.1,84h0.2v3.6H81.8z"/>
		<path class="st0" d="M86.4,87.6l1.9-4.1h0.4l1.9,4.1h-0.5l-1.7-3.9h0.2l-1.7,3.9H86.4z M87.2,86.5l0.1-0.4h2.4l0.1,0.4H87.2z"/>
		<path class="st0" d="M92.4,87.6v-3.7h-1.4v-0.4h3.3v0.4h-1.4v3.7H92.4z"/>
		<path class="st0" d="M97,87.7c-0.5,0-0.9-0.2-1.2-0.5c-0.3-0.3-0.5-0.7-0.5-1.3v-2.4h0.4v2.3c0,0.5,0.1,0.8,0.3,1.1
			c0.2,0.2,0.5,0.3,0.9,0.3c0.4,0,0.7-0.1,0.9-0.3c0.2-0.2,0.3-0.6,0.3-1.1v-2.3h0.4v2.4c0,0.6-0.2,1-0.4,1.3
			C97.9,87.5,97.5,87.7,97,87.7z"/>
		<path class="st0" d="M100.5,87.6v-4.1h1.5c0.3,0,0.6,0.1,0.9,0.2c0.3,0.1,0.4,0.3,0.6,0.5c0.1,0.2,0.2,0.5,0.2,0.8
			c0,0.3-0.1,0.5-0.2,0.7c-0.1,0.2-0.3,0.4-0.6,0.5c-0.3,0.1-0.6,0.2-0.9,0.2h-1.3l0.2-0.2v1.5H100.5z M100.9,86.2l-0.2-0.2h1.3
			c0.4,0,0.7-0.1,0.9-0.3c0.2-0.2,0.3-0.4,0.3-0.8c0-0.3-0.1-0.6-0.3-0.8c-0.2-0.2-0.5-0.3-0.9-0.3h-1.3l0.2-0.2V86.2z M103.3,87.6
			l-1.1-1.5h0.5l1.1,1.5H103.3z"/>
		<path class="st0" d="M105.6,87.2h2.5v0.4h-2.9v-4.1h2.8v0.4h-2.4V87.2z M105.6,85.3h2.2v0.4h-2.2V85.3z"/>
	</g>
</g>
</svg>
