<svg xmlns="http://www.w3.org/2000/svg" xmlns:xlink="http://www.w3.org/1999/xlink" width="1440" height="151" viewBox="0 0 1440 151">
    <defs>
        <linearGradient id="b" x1="0%" x2="67.482%" y1="50.543%" y2="49.506%">
            <stop offset="0%" stop-color="#4B84AE"/>
            <stop offset="100%" stop-color="#20406F"/>
        </linearGradient>
        <path id="a" d="M0 .238h1440v150H0z"/>
    </defs>
    <g fill="none" fill-rule="evenodd">
        <mask id="c" fill="#fff">
            <use xlink:href="#a"/>
        </mask>
        <use fill="url(#b)" xlink:href="#a"/>
        <g stroke="#005F9E" mask="url(#c)">
            <path d="M321.35 130.922l117.773 71.738-82.878 42.158-34.894-113.896M72.352 181.585l-47.438 44.562-47.116-152.818z"/>
            <path d="M72.352 181.585L-22.202 73.33 89.47 85.37zM89.47 85.369l-111.673-12.04 3.27-60.987zM734.539-104.49l-4.892 116.832L684.86-4.509z"/>
            <path d="M684.86-4.51l44.785 16.852-3.264 60.987zM716.904 364.075l-64.316-59.922 45.918-163.009zM422.791-45.824l118.504-51.028L481.37 11.073zM282.308-45.437l140.482-.385 58.58 56.897z"/>
            <path d="M282.308-45.437L481.37 11.075l-119.352 6.718zM362.02 17.793l119.352-6.718-63.307 35.537z"/>
            <path d="M418.064 46.612l63.307-35.538-42.635 192.128z"/>
            <path d="M438.735 203.204L481.37 11.076 542.01 56.2z"/>
            <path d="M542.009 56.2l-60.636-45.125 89.775-34.025zM438.735 203.204L542.01 56.201l21.728 163.367z"/>
            <path d="M563.74 219.568L542.01 56.202l82.185 140.437z"/>
            <path d="M624.198 196.639l-82.19-140.437 156.497 84.946z"/>
            <path d="M652.575 304.154l-28.374-107.522 74.316-55.478zM418.451 46.252l20.671 156.59-117.772-71.738z"/>
            <path d="M362.02 17.793l56.045 28.82-97.1 84.852zM320.963 131.466l34.894 113.896-138.688 76.975zM282.308-45.437l79.709 63.23L238.145 7.498zM41.712-7.312L124.5-160.008 140.01 4.47zM140.01 4.47L124.5-160.01l62.764 140.518z"/>
            <path d="M41.712-7.312l98.299 11.78-50.541 80.9zM89.47 85.369l50.541-80.9 34.7 77.342zM174.713 81.811l-34.7-77.342 47.248-23.963zM89.47 85.369l85.242-3.558-3.274 138.705zM-14.044-104.49L41.71-7.31l-60.645 19.653z"/>
            <path d="M-18.936 12.34L41.71-7.313l47.758 92.68zM72.352 181.585L89.47 85.37l54.815 158.82z"/>
            <path d="M143.54 244.303L90.214 85.028l80.699 135.831zM481.37 11.075l59.924-107.93 29.851 73.905zM362.02 17.793l-41.056 113.672-75.311-73.994zM245.653 57.472l75.311 73.993-146.25-49.654zM174.713 81.811l146.25 49.654-103.794 190.87z"/>
            <path d="M245.671 57.45l-70.92 24.38 12.477-101.306z"/>
            <path d="M362.02 17.793L245.652 57.47l-7.51-49.973zM571.147-22.95l113.71 18.44-30.077 44.883z"/>
            <path d="M654.777 40.375L684.86-4.508l41.521 77.834zM542.009 56.2l29.139-79.15 127.357 164.096z"/>
            <path d="M571.147-22.95l83.633 63.323 43.724 100.772z"/>
            <path d="M698.504 141.146L654.775 40.373l71.604 32.955zM171.438 220.515L174.71 81.81l42.456 240.529zM238.144 7.497l7.51 49.977-58.391-76.966z"/>
            <path d="M282.308-45.437L238.145 7.498l-50.88-26.993zM24.916 226.147l-56.59 137.926-18.397-222.926 74.987 85"/>
            <path d="M-22.202 73.327L24.914 226.15l-74.986-85.005zM820.067 179.575l-47.432 44.561-47.117-152.817z"/>
            <path d="M820.067 179.575L725.518 71.319l111.673 12.04z"/>
            <path d="M837.19 83.36L725.518 71.317l3.269-60.983zM1482.255-106.5l-4.892 116.831L1432.58-6.52z"/>
            <path d="M1432.58-6.52l44.781 16.85-3.26 60.988zM1464.625 362.064l-64.316-59.922 45.918-163.009zM1170.511-47.834l118.504-51.029-59.929 107.925zM1030.029-47.447l140.481-.385 58.575 56.896zM1030.029-47.447l199.056 56.511-119.353 6.718zM1109.735 15.784l119.352-6.718-63.306 35.533z"/>
            <path d="M1165.78 44.601l63.307-35.537-42.63 192.128z"/>
            <path d="M1186.455 201.193l42.63-192.128 60.646 45.125zM1289.73 54.189l-60.641-45.125 89.78-34.025z"/>
            <path d="M1186.455 201.193L1289.731 54.19l21.728 163.367z"/>
            <path d="M1311.46 217.558L1289.73 54.19l82.185 140.437z"/>
            <path d="M1371.918 194.628l-82.19-140.437 156.497 84.946z"/>
            <path d="M1400.296 302.143l-28.375-107.522 74.316-55.477zM1166.167 44.24l20.676 156.591-117.777-71.738z"/>
            <path d="M1109.735 15.784l56.046 28.815-97.096 84.857zM1068.684 129.456l34.894 113.895-138.689 76.975zM1030.029-47.447l79.703 63.23L985.865 5.487zM789.428-9.322l82.793-152.696 15.51 164.476z"/>
            <path d="M887.731 2.46l-15.51-164.482 62.763 140.518z"/>
            <path d="M789.428-9.322l98.304 11.78-50.542 80.905z"/>
            <path d="M837.19 83.36l50.542-80.9 34.7 77.342zM922.434 79.8L887.733 2.46l47.249-23.964z"/>
            <path d="M837.19 83.36l85.242-3.558-3.274 138.7zM733.677-106.5l55.75 97.178-60.642 19.653z"/>
            <path d="M728.785 10.332l60.64-19.654 47.764 92.68zM820.067 179.575l17.124-96.216 54.815 158.819z"/>
            <path d="M891.26 242.293L837.935 83.017l80.7 135.832zM1229.086 9.064l59.929-107.93 29.851 73.905zM1109.735 15.784l-41.05 113.672-75.312-73.994z"/>
            <path d="M993.373 55.461l75.312 73.994L922.434 79.8zM922.434 79.8l146.25 49.655-103.795 190.87z"/>
            <path d="M993.391 55.44l-70.92 24.383 12.478-101.31z"/>
            <path d="M1109.735 15.784L993.373 55.462l-7.51-49.977zM1318.867-24.961l113.71 18.44-30.077 44.883z"/>
            <path d="M1402.498 38.364l30.082-44.883 41.522 77.834zM1289.73 54.189l29.138-79.15 127.358 164.096z"/>
            <path d="M1318.867-24.961l83.633 63.323 43.725 100.773z"/>
            <path d="M1446.225 139.135l-43.73-100.772 71.605 32.955zM919.158 218.504L922.432 79.8l42.456 240.53zM985.864 5.487l7.51 49.976-58.391-76.966z"/>
            <path d="M1030.029-47.447L985.865 5.488l-50.88-26.994zM772.636 224.136l-56.588 137.926-18.398-222.926 74.986 85"/>
            <path d="M725.519 71.317l47.116 152.821-74.986-85.004z"/>
        </g>
    </g>
</svg>
